<?xml version="1.0" encoding="utf-8"?>
<!-- Generator: Adobe Illustrator 24.3.0, SVG Export Plug-In . SVG Version: 6.00 Build 0)  -->
<svg version="1.1" id="katman_1" xmlns="http://www.w3.org/2000/svg" xmlns:xlink="http://www.w3.org/1999/xlink" x="0px" y="0px"
	 viewBox="0 0 595.3 388.4" style="enable-background:new 0 0 595.3 388.4;" xml:space="preserve">
<style type="text/css">
	.st0{fill:#E30613;}
</style>
<g>
	<g>
		<path d="M154.8,259.8c-7.4,0-13.6-2.4-18.5-7.3c-4.7-5-7.2-11.4-7.2-19.5c0-10.8,3.9-18.8,11.9-23.7c8-5,21.4-7.7,40.2-8v-2.4
			c0-9.4-6.2-14-18.8-14c-7.4,0-15.4,1.7-24,5.1h-1.8v-17.4c9.6-2.9,19-4.3,27.9-4.3c27.3,0,38.4,9.4,38.4,31.1V258h-21.9v-8.9
			C173.2,257.6,166.9,259.3,154.8,259.8z M157,219c-4.4,2.4-6.7,6.5-6.7,12.3c0,8.4,4.4,12.6,13.1,12.6c7.4,0,12.6-2.7,17.8-7.7v-22
			C169.6,214.9,161.6,216.5,157,219z"/>
		<path d="M272.1,258v-51.9c0-13.8-3.6-19-12.9-19c-6,0-11.4,2.4-16,7.2V258h-21.9v-87.8H243v10.2c5.2-7.7,14.1-12.5,24.3-12.5
			c17.8,0,26.6,10.8,26.6,32.4V258H272.1z"/>
		<path d="M443.4,243.8c8.5,0,19.8-2.9,26.5-7h1.8v16.7c-9.8,4.3-20.3,6.5-31.2,6.5c-26,0-41-16.4-41-45.1c0-14,3.6-25.3,10.8-33.8
			c7.4-8.5,16.8-12.8,28.4-12.8c10.6,0,19.1,3.8,25.5,11.1c6.4,7.3,9.5,17.1,9.5,29.4v9.2h-52.8
			C421.7,235.3,429.1,243.8,443.4,243.8z M438.4,184.6c-10.5,0-16.8,8.2-17.5,21h33.2C454.1,192.6,448.2,184.6,438.4,184.6z"/>
		<path d="M559.3,258h-23.2l-17.3-28.7L500.6,258h-22.7l29.9-45.1l-27.6-42.7h23l15.8,26.1l16.2-26.1h22.5l-27.9,42.3L559.3,258z"/>
	</g>
	<path class="st0" d="M60,134.6l37.5,84c0.7,1.6,1.1,3.3,1.1,5v36.3H78.1l-0.9-35.8L36,134.6H60z"/>
	<polygon class="st0" points="91.1,194.5 113.2,194.5 140.4,134.6 115.7,134.6 	"/>
	<path d="M366,128.4V175c-7.4-4.3-12.4-6-20.7-6c-19-0.5-34.3,19.5-33.8,45.4c0,29.5,10.3,45.6,30.1,45.6c9.6,0,16.8-3.1,24.5-11.3
		v9.4h21.9V128.4H366z M347.4,244.9c-10.7,0-19.4-13.7-19.4-30.7s8.7-30.7,19.4-30.7s19.4,13.7,19.4,30.7S358.2,244.9,347.4,244.9z"
		/>
</g>
</svg>
